PathFileType	4	(X/Y/Z)	E:\Qualisys_Data\Carbon_Farble_Plate\Data\Amateur_Runner\S1\T1\S1T1V11_c3d.trc
DataRate	CameraRate	NumFrames	NumMarkers	Units	OrigDataRate	OrigDataStartFrame	OrigNumFrames
200.000000	200.000000	4	39	mm	200.000000	163	326
Frame#	Time	LSHO			RSHO			LICST			RICST			LASIS			LHEEL			RASIS			LTROC			RTROC			SACR			LTH1			LSK4			LTH2			LTH3			RHM5			LSK2			LTH4			RTH1			LTOE			RTH2			RTH3			RTH4			LLEP			RLEP			LSK1			LSK3			RSK1			LHM5			RSK2			LFT1			RSK3			RSK4			LLME			RLME			RTOE			RHEEL			RFT1			RFT2			LFT2			
		X1	Y1	Z1	X2	Y2	Z2	X3	Y3	Z3	X4	Y4	Z4	X5	Y5	Z5	X6	Y6	Z6	X7	Y7	Z7	X8	Y8	Z8	X9	Y9	Z9	X10	Y10	Z10	X11	Y11	Z11	X12	Y12	Z12	X13	Y13	Z13	X14	Y14	Z14	X15	Y15	Z15	X16	Y16	Z16	X17	Y17	Z17	X18	Y18	Z18	X19	Y19	Z19	X20	Y20	Z20	X21	Y21	Z21	X22	Y22	Z22	X23	Y23	Z23	X24	Y24	Z24	X25	Y25	Z25	X26	Y26	Z26	X27	Y27	Z27	X28	Y28	Z28	X29	Y29	Z29	X30	Y30	Z30	X31	Y31	Z31	X32	Y32	Z32	X33	Y33	Z33	X34	Y34	Z34	X35	Y35	Z35	X36	Y36	Z36	X37	Y37	Z37	X38	Y38	Z38	X39	Y39	Z39	

164	0.815	-6.022979259490967	1547.465209960938	-546.5728759765625	-99.22921752929688	1532.50341796875	-242.4305725097656	-50.76121520996094	1064.0830078125	-531.609130859375	-57.87170028686523	1087.222412109375	-236.2462921142578	-8.944803237915039	1022.942199707031	-505.7936096191406	-596.263916015625	359.307373046875	-425.1185302734375	-19.61959266662598	1040.627685546875	-242.6815032958984	-131.7867584228516	951.8738403320312	-549.4385986328125	-121.9833602905273	945.7710571289062	-211.3985900878906	-175.0075225830078	1094.452880859375	-384.2218322753906	-46.30505752563477	777.5261840820312	-510.4265747070312	-473.9098205566406	431.9026794433594	-454.9060668945312	-122.290283203125	791.2865600585938	-542.9789428710938	-73.68859100341797	678.6204223632812	-495.1930541992188	297.0865783691406	141.7325439453125	-219.7424011230469	-389.6880493164062	479.4126281738281	-492.796630859375	-153.3326568603516	697.4540405273438	-520.20947265625	29.90964126586914	835.7669067382812	-227.5652770996094	-502.6464538574219	122.9030303955078	-395.7649230957031	-41.67737579345703	815.81201171875	-196.2077484130859	55.86611175537109	737.3392333984375	-232.3709869384766	-19.35668182373047	718.0285034179688	-204.8467864990234	-180.19091796875	541.5099487304688	-486.702880859375	67.1572265625	573.7698974609375	-249.5587310791016	-348.5285034179688	407.1535949707031	-483.65234375	-439.1153564453125	361.7117919921875	-476.8024597167969	113.9137725830078	393.7493286132812	-225.3827514648438	-546.0244140625	165.7098083496094	-460.2882690429688	36.09611892700195	372.1553955078125	-237.7425384521484	-613.3234252929688	345.0059509277344	-391.5499877929688	143.2432708740234	298.1683959960938	-236.8505096435547	68.00479125976562	277.38330078125	-259.4992980957031	-553.9708862304688	318.4787292480469	-468.1578063964844	154.3895721435547	158.1567840576172	-236.9719390869141	350.8075256347656	189.6529083251953	-295.0013427734375	111.4027709960938	95.02657318115234	-280.1787414550781	134.2289123535156	74.15772247314453	-314.10205078125	127.7259902954102	73.77386474609375	-255.5435943603516	-620.8922729492188	340.0818481445312	-446.653564453125
165	0.82	10.87924671173096	1545.672119140625	-545.3272705078125	-82.59989929199219	1530.007568359375	-241.1447296142578	-35.32627487182617	1061.878784179688	-531.749755859375	-41.31360244750977	1085.083251953125	-236.3348846435547	7.023239612579346	1021.295288085938	-505.98681640625	-579.1798095703125	365.887939453125	-425.2821655273438	-5.180562496185303	1038.659790039062	-243.5408477783203	-115.046745300293	948.7517700195312	-549.6224365234375	-106.0250091552734	943.4443969726562	-211.5870361328125	-159.3179168701172	1091.757568359375	-383.4335327148438	-27.50177192687988	775.6705932617188	-509.9893188476562	-454.5585327148438	434.8409423828125	-455.1831359863281	-103.3544540405273	788.325927734375	-542.695068359375	-53.60560607910156	675.8931274414062	-494.58349609375	310.9931335449219	138.8726654052734	-221.7669982910156	-369.3805847167969	480.5663452148438	-492.8179931640625	-133.0311279296875	693.9224853515625	-520.0543823242188	45.38433456420898	833.7694702148438	-229.2910461425781	-489.4141540527344	127.8479995727539	-394.6982421875	-26.0649585723877	813.8262329101562	-195.5179595947266	71.86577606201172	735.5462036132812	-232.2135009765625	-3.657148599624634	715.9005737304688	-205.5113525390625	-158.4997863769531	537.8273315429688	-485.544189453125	82.8284683227539	572.1572265625	-251.1022796630859	-329.9172668457031	407.4879455566406	-484.0005798339844	-421.9147033691406	363.4736938476562	-476.7283020019531	129.8294677734375	391.4393920898438	-226.8748168945312	-532.3366088867188	170.1719512939453	-459.7627258300781	51.95518112182617	369.8518981933594	-237.8333129882812	-596.387451171875	351.7117004394531	-391.7137756347656	158.4901275634766	295.6011962890625	-238.4665985107422	82.9634780883789	275.2417297363281	-259.7847290039062	-537.3563842773438	323.5688781738281	-467.7239379882812	168.3967742919922	155.4535827636719	-238.0359039306641	364.4133605957031	186.9556732177734	-297.0823364257812	125.0173034667969	92.27973175048828	-280.9663696289062	147.6033782958984	71.67847442626953	-314.5258178710938	141.4417419433594	71.07018280029297	-255.9908752441406	-603.9656982421875	346.4687194824219	-446.3548889160156
166	0.825	27.32446670532227	1543.6103515625	-543.9796752929688	-66.00048828125	1527.248413085938	-239.6700439453125	-19.90604972839355	1059.793212890625	-531.733154296875	-27.64713478088379	1082.492065429688	-236.1188507080078	22.79692268371582	1019.49267578125	-505.6636352539062	-561.1708984375	371.4378662109375	-424.8836975097656	10.55789566040039	1036.460083007812	-243.2352905273438	-98.31591033935548	945.6691284179688	-550.1127319335938	-90.33757781982422	940.9755859375	-211.5995178222656	-143.610107421875	1088.743530273438	-382.7015991210938	-8.610325813293457	773.5657348632812	-509.7855834960938	-434.97509765625	437.5845642089844	-455.0930480957031	-84.43067169189453	785.0236206054688	-542.5713500976562	-33.59307861328125	673.140625	-494.6989135742188	323.6993408203125	135.0929412841797	-223.7772521972656	-348.7081909179688	481.1744995117188	-493.1708068847656	-113.0873718261719	690.1748046875	-520.1473999023438	61.26589202880859	832.5424194335938	-228.9371948242188	-475.8209838867188	132.1387176513672	-394.3675842285156	-9.992450714111328	811.8032836914062	-195.2579803466797	89.03656005859375	734.5532836914062	-230.9739685058594	12.89129161834717	714.0550537109375	-207.2502593994141	-136.9237365722656	534.1000366210938	-486.1494140625	98.8839111328125	570.8707885742188	-251.9604797363281	-311.18896484375	407.0132751464844	-483.8134765625	-404.0859069824219	365.1848449707031	-476.2445373535156	144.7807769775391	389.1073913574219	-227.9158172607422	-517.9622802734375	174.8160858154297	-459.0592651367188	66.9020767211914	367.8912048339844	-237.9239654541016	-578.5397338867188	357.8818664550781	-391.8165283203125	172.8168029785156	292.7971496582031	-240.2568359375	97.02452087402344	272.5243835449219	-260.0439147949219	-520.6609497070312	328.3030700683594	-467.7349853515625	181.4390716552734	152.1397552490234	-239.0164337158203	376.6558837890625	183.4946746826172	-299.4747314453125	137.4131164550781	88.94906616210938	-281.0444030761719	159.5331115722656	68.8867416381836	-315.7810974121094	153.8802947998047	68.04206848144531	-256.9303283691406	-586.3538818359375	352.7743530273438	-446.2028198242188
167	0.83	44.05953216552734	1541.2822265625	-542.7482299804688	-49.2347526550293	1524.114868164062	-238.1353759765625	-4.626928329467773	1056.648315429688	-531.80029296875	-10.99741458892822	1080.195922851562	-235.8202514648438	38.46752166748047	1017.293395996094	-505.4658203125	-541.9839477539062	377.0111083984375	-424.1319274902344	25.5509090423584	1034.52099609375	-243.4538726806641	-81.70964813232422	942.0158081054688	-550.1547241210938	-74.60765075683594	938.69189453125	-211.7906341552734	-127.9885940551758	1085.191040039062	-383.0765991210938	9.99113941192627	770.750244140625	-509.5491638183594	-414.6552429199219	439.9419555664062	-454.7766418457031	-65.93657684326172	781.6722412109375	-542.27734375	-13.17784976959229	670.2982177734375	-494.7538452148438	335.586669921875	130.7922058105469	-225.6560516357422	-327.6289672851562	481.64501953125	-492.6752624511719	-92.6535415649414	686.5086059570312	-520.4146728515625	77.72774505615234	831.5277709960938	-228.7187957763672	-461.4402770996094	136.2921752929688	-393.8351440429688	5.686338424682617	809.638427734375	-195.9158935546875	106.4456558227539	734.1210327148438	-229.7263488769531	29.50514030456543	712.4625244140625	-208.7939147949219	-114.7295150756836	530.179931640625	-486.9100646972656	115.4378128051758	568.85400390625	-252.8380584716797	-291.4456481933594	406.1873474121094	-483.4073486328125	-384.9799499511719	367.9991455078125	-476.7705688476562	158.9735565185547	385.9468383789062	-229.6395263671875	-503.7224731445312	180.4323120117188	-459.1951599121094	80.27626037597656	366.205322265625	-237.3157958984375	-559.5738525390625	364.2022094726562	-391.1896667480469	185.9571990966797	289.5267333984375	-241.4107971191406	109.1346588134766	270.5126342773438	-258.6388549804688	-502.9967956542969	333.1201171875	-467.7500610351562	193.201416015625	148.9649200439453	-239.6793365478516	388.0324096679688	179.5948181152344	-301.3120422363281	148.631103515625	85.67439270019531	-282.2698059082031	170.8508911132812	65.47486114501953	-316.5963439941406	165.0092315673828	64.07289123535156	-257.7516784667969	-568.2600708007812	358.8276062011719	-445.8939208984375
